<svg xmlns="http://www.w3.org/2000/svg" xmlns:xlink="http://www.w3.org/1999/xlink" version="1.1" width="1000" height="1000" viewBox="0 0 1000 1000" xml:space="preserve">
<desc>Created with Fabric.js 3.5.0</desc>
<defs>
</defs>
<rect x="0" y="0" width="100%" height="100%" fill="#ffffff"/>
<g transform="matrix(7.5758 0 0 7.5758 500.0025 500.0025)" id="882632">
<g style="" vector-effect="non-scaling-stroke">
		<g transform="matrix(1 0 0 1 -0.5 -0.5)">
<path style="stroke: none; stroke-width: 1; stroke-dasharray: none; stroke-linecap: butt; stroke-dashoffset: 0; stroke-linejoin: miter; stroke-miterlimit: 4; is-custom-font: none; font-file-url: none; fill: rgb(255,254,254); fill-rule: evenodd; opacity: 1;" transform=" translate(-59.5, -59.5)" d="M -0.5 -0.5 C 39.5 -0.5 79.5 -0.5 119.5 -0.5 C 119.5 39.5 119.5 79.5 119.5 119.5 C 79.5 119.5 39.5 119.5 -0.5 119.5 C -0.5 79.5 -0.5 39.5 -0.5 -0.5 Z" stroke-linecap="round"/>
</g>
		<g transform="matrix(1 0 0 1 -41.0617 -0.0574)">
<path style="stroke: none; stroke-width: 1; stroke-dasharray: none; stroke-linecap: butt; stroke-dashoffset: 0; stroke-linejoin: miter; stroke-miterlimit: 4; is-custom-font: none; font-file-url: none; fill: rgb(38,52,114); fill-rule: evenodd; opacity: 1;" transform=" translate(-18.9383, -59.9426)" d="M 24.5 30.5 C 21.1667 30.5 17.8333 30.5 14.5 30.5 C 14.5 50.5 14.5 70.5 14.5 90.5 C 13.5028 70.3402 13.1695 50.0069 13.5 29.5 C 17.3714 29.185 21.0381 29.5184 24.5 30.5 Z" stroke-linecap="round"/>
</g>
		<g transform="matrix(1 0 0 1 -22.5 0.0595)">
<path style="stroke: none; stroke-width: 1; stroke-dasharray: none; stroke-linecap: butt; stroke-dashoffset: 0; stroke-linejoin: miter; stroke-miterlimit: 4; is-custom-font: none; font-file-url: none; fill: rgb(38,52,114); fill-rule: evenodd; opacity: 1;" transform=" translate(-37.5, -60.0595)" d="M 48.5 29.5 C 52.5 29.5 56.5 29.5 60.5 29.5 C 60.5 49.8333 60.5 70.1667 60.5 90.5 C 56.774 90.8226 53.1073 90.4892 49.5 89.5 C 42.9198 75.9955 35.0865 63.3289 26 51.5 C 25.5001 64.4957 25.3334 77.4957 25.5 90.5 C 21.8333 90.5 18.1667 90.5 14.5 90.5 C 14.5 70.5 14.5 50.5 14.5 30.5 C 17.8333 30.5 21.1667 30.5 24.5 30.5 C 32.3272 40.819 39.6605 51.4856 46.5 62.5 C 46.7828 63.2891 47.2828 63.9558 48 64.5 C 48.4999 52.8381 48.6665 41.1714 48.5 29.5 Z" stroke-linecap="round"/>
</g>
		<g transform="matrix(1 0 0 1 -12.4688 -13)">
<path style="stroke: none; stroke-width: 1; stroke-dasharray: none; stroke-linecap: butt; stroke-dashoffset: 0; stroke-linejoin: miter; stroke-miterlimit: 4; is-custom-font: none; font-file-url: none; fill: rgb(38,52,114); fill-rule: evenodd; opacity: 1;" transform=" translate(-47.5312, -47)" d="M 48.5 29.5 C 48.6665 41.1714 48.4999 52.8381 48 64.5 C 47.2828 63.9558 46.7828 63.2891 46.5 62.5 C 47.1667 51.5 47.8333 40.5 48.5 29.5 Z" stroke-linecap="round"/>
</g>
		<g transform="matrix(1 0 0 1 30.9383 0)">
<path style="stroke: none; stroke-width: 1; stroke-dasharray: none; stroke-linecap: butt; stroke-dashoffset: 0; stroke-linejoin: miter; stroke-miterlimit: 4; is-custom-font: none; font-file-url: none; fill: rgb(38,52,114); fill-rule: evenodd; opacity: 1;" transform=" translate(-90.9383, -60)" d="M 85.5 41.5 C 92.9818 40.508 100.648 40.1746 108.5 40.5 C 108.5 37.1667 108.5 33.8333 108.5 30.5 C 96.8333 30.5 85.1667 30.5 73.5 30.5 C 73.5 50.5 73.5 70.5 73.5 90.5 C 72.5028 70.3402 72.1695 50.0069 72.5 29.5 C 84.8333 29.5 97.1667 29.5 109.5 29.5 C 109.5 33.5 109.5 37.5 109.5 41.5 C 101.5 41.5 93.5 41.5 85.5 41.5 Z" stroke-linecap="round"/>
</g>
		<g transform="matrix(1 0 0 1 31 0.5)">
<path style="stroke: none; stroke-width: 1; stroke-dasharray: none; stroke-linecap: butt; stroke-dashoffset: 0; stroke-linejoin: miter; stroke-miterlimit: 4; is-custom-font: none; font-file-url: none; fill: rgb(38,52,114); fill-rule: evenodd; opacity: 1;" transform=" translate(-91, -60.5)" d="M 85.5 41.5 C 84.5151 45.6344 84.1818 49.9677 84.5 54.5 C 91.8333 54.5 99.1667 54.5 106.5 54.5 C 106.5 58.1667 106.5 61.8333 106.5 65.5 C 99.1667 65.5 91.8333 65.5 84.5 65.5 C 84.5 73.8333 84.5 82.1667 84.5 90.5 C 80.8333 90.5 77.1667 90.5 73.5 90.5 C 73.5 70.5 73.5 50.5 73.5 30.5 C 85.1667 30.5 96.8333 30.5 108.5 30.5 C 108.5 33.8333 108.5 37.1667 108.5 40.5 C 100.648 40.1746 92.9818 40.508 85.5 41.5 Z" stroke-linecap="round"/>
</g>
		<g transform="matrix(1 0 0 1 35.4417 -12)">
<path style="stroke: none; stroke-width: 1; stroke-dasharray: none; stroke-linecap: butt; stroke-dashoffset: 0; stroke-linejoin: miter; stroke-miterlimit: 4; is-custom-font: none; font-file-url: none; fill: rgb(38,52,114); fill-rule: evenodd; opacity: 1;" transform=" translate(-95.4417, -48)" d="M 85.5 41.5 C 85.5 45.5 85.5 49.5 85.5 53.5 C 92.6866 53.1755 99.6866 53.5088 106.5 54.5 C 99.1667 54.5 91.8333 54.5 84.5 54.5 C 84.1818 49.9677 84.5151 45.6344 85.5 41.5 Z" stroke-linecap="round"/>
</g>
</g>
</g>
</svg>